# xmcd CD database file
#
# Track frame offsets:
#	150
#	11732
#	26926
#	39400
#	53472
#	65975
#	81766
#	97521
#	110845
#	123665
#	137619
#	151068
#	171320
#	186059
#	199696
#	213330
#	227604
#	241823
#	256432
#	272208
#	288883
#	304565
#	321822
#
# Disc length: 4517 seconds
#
# Revision: 0
# Processed by: cddbd v1.5.1PL0 Copyright (c) Steve Scherf et al.
# Submitted via: CDex 1.51
#
DISCID=3d11a317
DTITLE=Thelonious Monk - Genius Of Modern Music Disc Two
DYEAR=1900
DGENRE=Jazz
TTITLE0=Evidence
TTITLE1=Misterioso
TTITLE2=Misterioso [alternate take]
TTITLE3=Epistrophy
TTITLE4=I Mean You
TTITLE5=Four In One
TTITLE6=Four In One [alternate take]
TTITLE7=Criss Cross
TTITLE8=Criss Cross [alternate take]
TTITLE9=Eronel
TTITLE10=Straight No Chaser
TTITLE11=Ask Me Now [alternate take]
TTITLE12=Ask Me Now
TTITLE13=Willow Weep For Me
TTITLE14=Skippy
TTITLE15=Skippy [alternate take]
TTITLE16=Hornin' In [alternate take]
TTITLE17=Hornin' In
TTITLE18=Sixteen [first take]
TTITLE19=Sixteen [second take]
TTITLE20=Carolina Moon
TTITLE21=Let's Cool One
TTITLE22=I'll Follow You
EXTD=
EXTT0=
EXTT1=
EXTT2=
EXTT3=
EXTT4=
EXTT5=
EXTT6=
EXTT7=
EXTT8=
EXTT9=
EXTT10=
EXTT11=
EXTT12=
EXTT13=
EXTT14=
EXTT15=
EXTT16=
EXTT17=
EXTT18=
EXTT19=
EXTT20=
EXTT21=
EXTT22=
PLAYORDER=
